<mxfile host="app.diagrams.net" modified="2021-05-05T14:51:59.472Z" agent="5.0 (Windows NT 10.0; Win64; x64) AppleWebKit/537.36 (KHTML, like Gecko) Chrome/90.0.4430.93 Safari/537.36" etag="GJ5SWtKlzv5sLECkRHTA" version="14.6.10" type="github">
  <diagram id="R2lEEEUBdFMjLlhIrx00" name="Page-1">
    <mxGraphModel dx="974" dy="473" grid="1" gridSize="10" guides="1" tooltips="1" connect="1" arrows="1" fold="1" page="1" pageScale="1" pageWidth="850" pageHeight="1100" math="0" shadow="0" extFonts="Permanent Marker^https://fonts.googleapis.com/css?family=Permanent+Marker">
      <root>
        <mxCell id="0" />
        <mxCell id="1" parent="0" />
        <mxCell id="xhrNdNruKcUskukM0VMD-6" value="" style="group" vertex="1" connectable="0" parent="1">
          <mxGeometry x="320" y="380" width="130" height="290" as="geometry" />
        </mxCell>
        <mxCell id="xhrNdNruKcUskukM0VMD-4" value="Services" style="whiteSpace=wrap;html=1;align=center;" vertex="1" parent="xhrNdNruKcUskukM0VMD-6">
          <mxGeometry width="130" height="290" as="geometry" />
        </mxCell>
        <mxCell id="xhrNdNruKcUskukM0VMD-1" value="Pet Sitting (in house)" style="rounded=1;arcSize=10;whiteSpace=wrap;html=1;align=center;" vertex="1" parent="xhrNdNruKcUskukM0VMD-6">
          <mxGeometry x="15" y="70" width="100" height="40" as="geometry" />
        </mxCell>
        <mxCell id="xhrNdNruKcUskukM0VMD-2" value="Dog Walking" style="rounded=1;arcSize=10;whiteSpace=wrap;html=1;align=center;" vertex="1" parent="xhrNdNruKcUskukM0VMD-6">
          <mxGeometry x="15" y="120" width="100" height="40" as="geometry" />
        </mxCell>
        <mxCell id="xhrNdNruKcUskukM0VMD-3" value="Pet Boarding" style="rounded=1;arcSize=10;whiteSpace=wrap;html=1;align=center;" vertex="1" parent="xhrNdNruKcUskukM0VMD-6">
          <mxGeometry x="15" y="170" width="100" height="40" as="geometry" />
        </mxCell>
        <mxCell id="xhrNdNruKcUskukM0VMD-5" value="Services" style="text;html=1;strokeColor=none;fillColor=none;align=center;verticalAlign=middle;whiteSpace=wrap;rounded=0;" vertex="1" parent="xhrNdNruKcUskukM0VMD-6">
          <mxGeometry x="15" y="10" width="90" height="20" as="geometry" />
        </mxCell>
        <mxCell id="xhrNdNruKcUskukM0VMD-9" value="Consumers&lt;br&gt;" style="shape=umlActor;verticalLabelPosition=bottom;verticalAlign=top;html=1;outlineConnect=0;" vertex="1" parent="1">
          <mxGeometry x="510" y="490" width="30" height="60" as="geometry" />
        </mxCell>
        <mxCell id="xhrNdNruKcUskukM0VMD-13" value="Providers" style="shape=umlActor;verticalLabelPosition=bottom;verticalAlign=top;html=1;outlineConnect=0;" vertex="1" parent="1">
          <mxGeometry x="210" y="500" width="30" height="60" as="geometry" />
        </mxCell>
      </root>
    </mxGraphModel>
  </diagram>
</mxfile>
